<svg width="512" height="512" viewBox="0 0 512 512" fill="none" xmlns="http://www.w3.org/2000/svg">
<path fill-rule="evenodd" clip-rule="evenodd" d="M32.1079 202.008L362.478 11.2691C371.556 6.02809 383.271 9.16709 388.512 18.2451L501.461 213.878C506.702 222.956 503.563 234.671 494.485 239.912L164.115 430.651C155.037 435.892 143.322 432.753 138.081 423.675L25.1319 228.043C19.8909 218.965 23.0299 207.249 32.1079 202.008Z" fill="#A79BA7"/>
<path fill-rule="evenodd" clip-rule="evenodd" d="M362.478 11.2691C371.556 6.02809 383.271 9.16709 388.512 18.2451L501.461 213.878C506.702 222.956 503.563 234.671 494.485 239.912L474.448 251.48C483.525 246.239 486.663 234.524 481.422 225.447L368.474 29.8141C363.233 20.7361 351.517 17.5971 342.44 22.8381L362.478 11.2691Z" fill="#837683"/>
<path fill-rule="evenodd" clip-rule="evenodd" d="M39.7449 253.349L403.114 43.5516L424.33 80.2969L60.9604 290.094L39.7449 253.349Z" fill="#685E68"/>
<path fill-rule="evenodd" clip-rule="evenodd" d="M383.077 55.125L403.115 43.556L424.33 80.3012L404.293 91.8702L383.077 55.125Z" fill="#544854"/>
<path fill-rule="evenodd" clip-rule="evenodd" d="M27.059 177.587H408.537C419.019 177.587 427.595 186.163 427.595 196.646V422.544C427.595 433.026 419.019 441.602 408.537 441.602H27.059C16.576 441.601 8 433.025 8 422.543V196.645C8 186.163 16.576 177.587 27.059 177.587Z" fill="#C4E2FF"/>
<path fill-rule="evenodd" clip-rule="evenodd" d="M407.594 177.587H408.537C419.019 177.587 427.595 186.163 427.595 196.646V422.544C427.595 433.026 419.019 441.602 408.537 441.602H27.059C16.576 441.601 8 433.025 8 422.543V421.601H388.536C399.018 421.601 407.594 413.025 407.594 402.543V177.587Z" fill="#ADD5FA"/>
<path fill-rule="evenodd" clip-rule="evenodd" d="M67.638 363.54H106.297C111.49 363.54 115.726 367.776 115.726 372.969V383.342C115.726 388.535 111.49 392.771 106.297 392.771H67.638C62.445 392.771 58.209 388.535 58.209 383.342V372.969C58.209 367.775 62.444 363.54 67.638 363.54ZM335.66 363.54H374.319C379.512 363.54 383.748 367.776 383.748 372.969V383.342C383.748 388.535 379.512 392.771 374.319 392.771H335.66C330.467 392.771 326.231 388.535 326.231 383.342V372.969C326.231 367.775 330.466 363.54 335.66 363.54ZM246.319 363.54H284.978C290.171 363.54 294.407 367.776 294.407 372.969V383.342C294.407 388.535 290.171 392.771 284.978 392.771H246.319C241.126 392.771 236.89 388.535 236.89 383.342V372.969C236.89 367.775 241.126 363.54 246.319 363.54ZM156.979 363.54H195.638C200.831 363.54 205.067 367.776 205.067 372.969V383.342C205.067 388.535 200.831 392.771 195.638 392.771H156.979C151.786 392.771 147.55 388.535 147.55 383.342V372.969C147.549 367.775 151.785 363.54 156.979 363.54Z" fill="#9FACBA"/>
<path fill-rule="evenodd" clip-rule="evenodd" d="M105.725 363.54H106.296C111.489 363.54 115.725 367.776 115.725 372.969V383.342C115.725 388.535 111.489 392.771 106.296 392.771H67.638C62.445 392.771 58.209 388.535 58.209 383.342V382.77H96.296C101.489 382.77 105.725 378.534 105.725 373.341V363.54ZM373.747 363.54H374.318C379.511 363.54 383.747 367.776 383.747 372.969V383.342C383.747 388.535 379.511 392.771 374.318 392.771H335.66C330.467 392.771 326.231 388.535 326.231 383.342V382.77H364.319C369.512 382.77 373.748 378.534 373.748 373.341L373.747 363.54ZM284.407 363.54H284.978C290.171 363.54 294.407 367.776 294.407 372.969V383.342C294.407 388.535 290.171 392.771 284.978 392.771H246.319C241.126 392.771 236.89 388.535 236.89 383.342V382.77H274.977C280.17 382.77 284.406 378.534 284.406 373.341V363.54H284.407ZM195.066 363.54H195.638C200.831 363.54 205.067 367.776 205.067 372.969V383.342C205.067 388.535 200.831 392.771 195.638 392.771H156.979C151.786 392.771 147.55 388.535 147.55 383.342V382.77H185.637C190.83 382.77 195.066 378.534 195.066 373.341V363.54Z" fill="#8D9CA8"/>
<path fill-rule="evenodd" clip-rule="evenodd" d="M64.59 239.546H118.302C121.812 239.546 124.683 242.417 124.683 245.927V284.217C124.683 287.727 121.811 290.598 118.302 290.598H64.59C61.08 290.598 58.209 287.727 58.209 284.217V245.927C58.209 242.417 61.08 239.546 64.59 239.546Z" fill="#FFE177"/>
<path fill-rule="evenodd" clip-rule="evenodd" d="M64.59 239.546H68.209V274.217C68.209 277.727 71.08 280.598 74.59 280.598H124.683V284.217C124.683 287.727 121.811 290.598 118.302 290.598H64.59C61.08 290.598 58.209 287.727 58.209 284.217V245.927C58.209 242.417 61.08 239.546 64.59 239.546Z" fill="#FFD064"/>
<path fill-rule="evenodd" clip-rule="evenodd" d="M245.14 230.996C240.722 230.996 237.14 227.414 237.14 222.996C237.14 218.578 240.722 214.996 245.14 214.996H383.748C388.166 214.996 391.748 218.578 391.748 222.996C391.748 227.414 388.166 230.996 383.748 230.996H245.14ZM305.754 259.121C301.336 259.121 297.754 255.539 297.754 251.121C297.754 246.703 301.336 243.121 305.754 243.121H383.747C388.165 243.121 391.747 246.703 391.747 251.121C391.747 255.539 388.165 259.121 383.747 259.121H305.754Z" fill="#9FACBA"/>
<path d="M397.54 503.27C455.53 503.27 502.54 456.26 502.54 398.27C502.54 340.28 455.53 293.27 397.54 293.27C339.55 293.27 292.54 340.28 292.54 398.27C292.54 456.26 339.55 503.27 397.54 503.27Z" fill="#FE646F"/>
<path fill-rule="evenodd" clip-rule="evenodd" d="M397.54 293.27C455.53 293.27 502.54 340.28 502.54 398.27C502.54 456.26 455.53 503.27 397.54 503.27C394.167 503.27 390.832 503.105 387.54 502.793C440.838 497.756 482.539 452.886 482.539 398.27C482.539 343.654 440.838 298.784 387.54 293.747C390.832 293.435 394.166 293.27 397.54 293.27Z" fill="#FD4755"/>
<path fill-rule="evenodd" clip-rule="evenodd" d="M383.963 338.789C394.761 349.58 394.803 367.342 384.004 378.149C373.139 389.022 355.526 389.063 344.644 378.19C333.773 367.325 333.729 349.712 344.603 338.83C355.468 327.957 373.082 327.916 383.963 338.789ZM372.713 350.101C368.085 345.477 360.55 345.442 355.916 350.08C351.292 354.708 351.257 362.242 355.894 366.877C360.522 371.501 368.057 371.536 372.691 366.898C377.308 362.28 377.341 354.726 372.713 350.101ZM450.436 418.35C461.234 429.141 461.277 446.903 450.477 457.71C439.613 468.582 421.998 468.624 411.117 457.751C400.245 446.886 400.203 429.273 411.076 418.391C421.94 407.519 439.555 407.476 450.436 418.35ZM439.185 429.662C434.557 425.038 427.022 425.003 422.388 429.641C417.764 434.268 417.729 441.804 422.367 446.438C426.994 451.062 434.53 451.097 439.164 446.459C443.78 441.84 443.813 434.287 439.185 429.662Z" fill="white"/>
<path fill-rule="evenodd" clip-rule="evenodd" d="M367.408 454.378C364.837 457.95 359.856 458.762 356.283 456.191C352.71 453.62 351.899 448.639 354.47 445.066L428.879 341.435C431.45 337.862 436.431 337.051 440.004 339.622C443.576 342.193 444.388 347.174 441.817 350.747L367.408 454.378Z" fill="white"/>
</svg>
