<svg width="504" height="504" viewBox="0 0 504 504" fill="none" xmlns="http://www.w3.org/2000/svg">
<path d="M184.8 324.4L210.4 180.4H250.4L225.6 324.4H184.8Z" fill="#3C58BF"/>
<path d="M184.8 324.4L217.6 180.4H250.4L225.6 324.4H184.8Z" fill="#293688"/>
<path d="M370.4 182C362.4 178.8 349.6 175.6 333.6 175.6C293.6 175.6 264.8 195.6 264.8 224.4C264.8 246 284.8 257.2 300.8 264.4C316.8 271.6 321.6 276.4 321.6 282.8C321.6 292.4 308.8 297.2 297.6 297.2C281.6 297.2 272.8 294.8 259.2 289.2L253.6 286.8L248 319.6C257.6 323.6 275.2 327.6 293.6 327.6C336 327.6 364 307.6 364 277.2C364 260.4 353.6 247.6 329.6 237.2C315.2 230 306.4 226 306.4 218.8C306.4 212.4 313.6 206 329.6 206C343.2 206 352.8 208.4 360 211.6L364 213.2L370.4 182Z" fill="#3C58BF"/>
<path d="M370.4 182C362.4 178.8 349.6 175.6 333.6 175.6C293.6 175.6 272 195.6 272 224.4C272 246 284.8 257.2 300.8 264.4C316.8 271.6 321.6 276.4 321.6 282.8C321.6 292.4 308.8 297.2 297.6 297.2C281.6 297.2 272.8 294.8 259.2 289.2L253.6 286.8L248 319.6C257.6 323.6 275.2 327.6 293.6 327.6C336 327.6 364 307.6 364 277.2C364 260.4 353.6 247.6 329.6 237.2C315.2 230 306.4 226 306.4 218.8C306.4 212.4 313.6 206 329.6 206C343.2 206 352.8 208.4 360 211.6L364 213.2L370.4 182Z" fill="#293688"/>
<path d="M439.2 180.4C429.6 180.4 422.4 181.2 418.4 190.8L358.4 324.4H401.6L409.6 300.4H460.8L465.6 324.4H504L470.4 180.4H439.2ZM420.8 276.4C423.2 269.2 436.8 234 436.8 234C436.8 234 440 225.2 442.4 219.6L444.8 233.2C444.8 233.2 452.8 269.2 454.4 277.2H420.8V276.4Z" fill="#3C58BF"/>
<path d="M448.8 180.4C439.2 180.4 432 181.2 428 190.8L358.4 324.4H401.6L409.6 300.4H460.8L465.6 324.4H504L470.4 180.4H448.8ZM420.8 276.4C424 268.4 436.8 234 436.8 234C436.8 234 440 225.2 442.4 219.6L444.8 233.2C444.8 233.2 452.8 269.2 454.4 277.2H420.8V276.4Z" fill="#293688"/>
<path d="M111.2 281.2L107.2 260.4C99.9999 236.4 76.8 210 51.2 197.2L87.1999 325.2H130.4L195.2 181.2H152L111.2 281.2Z" fill="#3C58BF"/>
<path d="M111.2 281.2L107.2 260.4C99.9999 236.4 76.8 210 51.2 197.2L87.1999 325.2H130.4L195.2 181.2H160L111.2 281.2Z" fill="#293688"/>
<path d="M0 180.4L7.2 182C58.4 194 93.6 224.4 107.2 260.4L92.8 192.4C90.4 182.8 83.2 180.4 74.4 180.4H0Z" fill="#FFBC00"/>
<path d="M0 180.4C51.2 192.4 93.6 223.6 107.2 259.6L93.6 202.8C91.2 193.2 83.2 187.6 74.4 187.6L0 180.4Z" fill="#F7981D"/>
<path d="M0 180.4C51.2 192.4 93.6 223.6 107.2 259.6L97.6 228.4C95.2 218.8 92 209.2 80.8 205.2L0 180.4Z" fill="#ED7C00"/>
<path d="M151.2 276.4L124 249.2L111.2 279.6L108 259.6C100.8 235.6 77.6 209.2 52 196.4L88 324.4H131.2L151.2 276.4Z" fill="#051244"/>
<path d="M225.6 324.4L191.2 289.2L184.8 324.4H225.6Z" fill="#051244"/>
<path d="M317.6 274.8C320.8 278 322.4 280.4 321.6 283.6C321.6 293.2 308.8 298 297.6 298C281.6 298 272.8 295.6 259.2 290L253.6 287.6L248 320.4C257.6 324.4 275.2 328.4 293.6 328.4C319.2 328.4 340 321.2 352 308.4L317.6 274.8Z" fill="#051244"/>
<path d="M364 324.4H401.6L409.6 300.4H460.8L465.6 324.4H504L490.4 266L442.4 219.6L444.8 232.4C444.8 232.4 452.8 268.4 454.4 276.4H420.8C424 268.4 436.8 234 436.8 234C436.8 234 440 225.2 442.4 219.6" fill="#051244"/>
</svg>
