<svg width="512" height="512" viewBox="0 0 512 512" fill="none" xmlns="http://www.w3.org/2000/svg">
<path d="M499.828 307.441L472.723 288.064L472.358 211.701C472.325 204.726 467.286 199.887 460.056 199.887H376.109L324.56 392.271H468.848C477.702 392.271 486.804 385.094 489.176 376.24L503.927 321.188C505.437 315.557 503.881 310.339 499.828 307.441Z" fill="#FFA95F"/>
<path d="M376.952 368.225C375.799 368.225 374.244 367.988 373.379 366.861C372.604 365.849 372.45 364.181 372.959 362.283L382.105 328.144H341.743L324.56 392.272H468.848C477.703 392.272 486.803 385.094 489.176 376.24L491.324 368.225H376.952Z" fill="#FF8B5A"/>
<path d="M499.828 307.441L472.723 288.064L472.358 211.701C472.325 204.726 467.286 199.887 460.057 199.887H416.472L382.105 328.143H502.064L503.928 321.188C505.437 315.557 503.881 310.339 499.828 307.441Z" fill="#FFC269"/>
<path d="M163.973 183.856H388.422C392.849 183.856 395.476 187.445 394.29 191.872L340.593 392.273H108.128C103.701 392.273 101.074 388.684 102.26 384.257L153.809 191.872C154.995 187.445 159.546 183.856 163.973 183.856Z" fill="#E5646E"/>
<path d="M340.593 392.272L347.037 368.225H344.889H141.126C135.961 368.225 132.201 363.326 133.538 358.336L139.829 334.852C141.018 330.414 145.706 328.086 150.072 329.517C166.295 334.834 183.435 336.998 200.82 335.868C263.739 331.78 313.991 282.654 325.98 220.752C328.476 207.865 328.768 198.069 327.07 183.855H163.972C159.545 183.855 154.994 187.444 153.808 191.871L102.259 384.255C101.073 388.682 103.699 392.271 108.127 392.271H340.593V392.272Z" fill="#DB4655"/>
<path d="M447.634 413.338C462.875 400 466.952 379.73 456.741 368.062C446.53 356.395 425.898 357.75 410.658 371.087C395.417 384.425 391.34 404.696 401.551 416.363C411.762 428.03 432.394 426.676 447.634 413.338Z" fill="#5D5360"/>
<path d="M199.036 413.466C214.276 400.128 218.353 379.857 208.143 368.19C197.932 356.523 177.299 357.877 162.059 371.215C146.819 384.553 142.741 404.823 152.952 416.491C163.163 428.158 183.795 426.804 199.036 413.466Z" fill="#5D5360"/>
<path d="M416.612 288.064H472.725L472.457 231.951H431.648C422.794 231.951 413.693 239.129 411.32 247.983L404.876 272.031C402.503 280.886 407.757 288.064 416.612 288.064Z" fill="#DBEAFF"/>
<path d="M191.869 312.112C253.849 312.112 304.093 261.868 304.093 199.888C304.093 137.908 253.849 87.6631 191.869 87.6631C129.889 87.6631 79.644 137.908 79.644 199.888C79.644 261.868 129.889 312.112 191.869 312.112Z" fill="#ECEAEC"/>
<path d="M191.869 288.064C240.567 288.064 280.045 248.586 280.045 199.888C280.045 151.19 240.567 111.712 191.869 111.712C143.171 111.712 103.693 151.19 103.693 199.888C103.693 248.586 143.171 288.064 191.869 288.064Z" fill="white"/>
<path d="M191.869 215.92C200.723 215.92 207.901 208.742 207.901 199.888C207.901 191.034 200.723 183.856 191.869 183.856C183.015 183.856 175.837 191.034 175.837 199.888C175.837 208.742 183.015 215.92 191.869 215.92Z" fill="#5D5360"/>
<path d="M472.724 288.064L472.61 264.016H436.94C435.788 264.016 434.233 263.779 433.369 262.652C432.592 261.64 432.438 259.972 432.947 258.074L439.391 234.025L439.947 231.951H431.648C422.793 231.951 413.692 239.129 411.32 247.983L404.875 272.031C402.503 280.885 407.758 288.063 416.612 288.063L472.724 288.064Z" fill="#C3DDFF"/>
<path d="M428.769 384.772C424.627 384.772 421.269 388.13 421.269 392.272C421.269 396.414 424.627 399.772 428.769 399.772H428.849C432.991 399.772 436.309 396.414 436.309 392.272C436.309 388.13 432.912 384.772 428.769 384.772Z" fill="black"/>
<path d="M180.272 384.772C176.13 384.772 172.772 388.13 172.772 392.272C172.772 396.414 176.13 399.772 180.272 399.772H180.352C184.494 399.772 187.812 396.414 187.812 392.272C187.812 388.13 184.415 384.772 180.272 384.772Z" fill="black"/>
<path d="M504.19 301.341L480.205 284.194L479.859 211.666C479.805 200.496 471.477 192.388 460.058 192.388H401.837C402.519 188.434 401.644 184.546 399.338 181.54C396.81 178.246 392.831 176.356 388.422 176.356H336.157C332.015 176.356 328.657 179.714 328.657 183.856C328.657 187.998 332.015 191.356 336.157 191.356L386.663 191.357L334.837 384.773H220.937C221.091 377.261 218.957 370.221 214.676 364.642C208.772 356.947 199.605 352.708 188.864 352.708C169.56 352.708 150.398 366.403 142.85 384.773L109.886 384.772L124.539 330.083C125.611 326.082 123.238 321.97 119.236 320.897C115.242 319.829 111.123 322.199 110.05 326.201L95.0148 382.316C93.8269 386.747 94.6278 391.221 97.2118 394.588C99.7398 397.882 103.719 399.772 108.128 399.772H139.607C139.453 407.284 141.586 414.323 145.867 419.902C151.772 427.598 160.939 431.836 171.68 431.836C190.984 431.836 210.145 418.141 217.693 399.772H388.104C387.95 407.284 390.083 414.323 394.364 419.902C400.269 427.598 409.436 431.836 420.177 431.836C439.481 431.836 458.643 418.141 466.19 399.772H468.849C481.066 399.772 493.178 390.288 496.422 378.181L511.173 323.13C513.502 314.434 510.827 306.085 504.19 301.341ZM205.092 390.331C201.242 404.698 185.942 416.836 171.68 416.836C165.71 416.836 160.769 414.682 157.767 410.771C154.539 406.565 153.717 400.685 155.452 394.213C159.301 379.846 174.602 367.708 188.864 367.708C194.834 367.708 199.775 369.862 202.777 373.773C206.004 377.98 206.827 383.86 205.092 390.331ZM465.187 280.564H416.611C415.343 280.564 413.623 280.293 412.63 278.999C411.755 277.859 411.569 276.027 412.12 273.973L418.563 249.925C420.058 244.346 426.172 239.452 431.646 239.452H464.99L465.187 280.564ZM453.589 390.331C449.739 404.698 434.439 416.836 420.177 416.836C414.207 416.836 409.266 414.682 406.264 410.771C403.036 406.565 402.214 400.685 403.949 394.213C407.798 379.846 423.099 367.708 437.361 367.708C443.331 367.708 448.272 369.862 451.274 373.773C454.501 377.98 455.324 383.86 453.589 390.331ZM481.932 374.3C480.49 379.681 474.752 384.412 469.434 384.742C469.581 377.242 467.447 370.214 463.173 364.643C457.268 356.948 448.101 352.709 437.36 352.709C418.056 352.709 398.894 366.404 391.346 384.774H350.366L363.53 335.645H453.967C458.109 335.645 461.467 332.287 461.467 328.145C461.467 324.003 458.109 320.645 453.967 320.645H367.549L397.895 207.389H460.056C462.237 207.389 464.84 208.144 464.857 211.739L464.919 224.453H431.645C419.428 224.453 407.316 233.937 404.072 246.044L397.629 270.092C395.862 276.686 396.992 283.261 400.729 288.131C404.354 292.856 410.143 295.565 416.61 295.565H470.317L495.465 313.544C497.603 315.072 496.937 318.297 496.682 319.249L496.308 320.645H486.031C481.889 320.645 478.531 324.003 478.531 328.145C478.531 332.287 481.889 335.645 486.031 335.645H492.289L481.932 374.3Z" fill="black"/>
<path d="M191.869 319.612C257.885 319.612 311.593 265.905 311.593 199.888C311.593 133.87 257.885 80.1631 191.869 80.1631C125.852 80.1631 72.144 133.871 72.144 199.888C72.144 265.904 125.852 319.612 191.869 319.612ZM191.869 95.1629C249.614 95.1629 296.593 142.142 296.593 199.888C296.593 257.633 249.615 304.612 191.869 304.612C134.122 304.612 87.1439 257.633 87.1439 199.888C87.1439 142.142 134.123 95.1629 191.869 95.1629Z" fill="black"/>
<path d="M159.805 239.451C161.724 239.451 163.644 238.719 165.108 237.254L181.406 220.956C184.56 222.529 188.112 223.419 191.869 223.419C204.845 223.419 215.4 212.863 215.4 199.888C215.4 196.131 214.51 192.579 212.937 189.425L253.284 149.079C256.213 146.15 256.213 141.401 253.284 138.473C250.355 135.544 245.606 135.545 242.678 138.473L202.332 178.819C199.178 177.246 195.626 176.357 191.869 176.357C178.893 176.357 168.337 186.914 168.337 199.889C168.337 203.646 169.227 207.198 170.799 210.352L154.501 226.649C151.572 229.578 151.572 234.327 154.501 237.255C155.966 238.719 157.885 239.451 159.805 239.451ZM191.869 191.356C196.574 191.356 200.401 195.184 200.401 199.888C200.401 204.592 196.573 208.42 191.869 208.42C187.165 208.42 183.337 204.592 183.337 199.888C183.337 195.184 187.165 191.356 191.869 191.356Z" fill="black"/>
<path d="M191.869 135.243C196.011 135.243 199.369 131.885 199.369 127.743V119.727C199.369 115.585 196.011 112.227 191.869 112.227C187.727 112.227 184.369 115.585 184.369 119.727V127.743C184.369 131.886 187.727 135.243 191.869 135.243Z" fill="black"/>
<path d="M191.869 264.532C187.727 264.532 184.369 267.89 184.369 272.032V280.048C184.369 284.19 187.727 287.548 191.869 287.548C196.011 287.548 199.369 284.19 199.369 280.048V272.032C199.369 267.89 196.011 264.532 191.869 264.532Z" fill="black"/>
<path d="M264.013 207.388H272.029C276.171 207.388 279.529 204.03 279.529 199.888C279.529 195.746 276.171 192.388 272.029 192.388H264.013C259.871 192.388 256.513 195.746 256.513 199.888C256.513 204.03 259.871 207.388 264.013 207.388Z" fill="black"/>
<path d="M127.225 199.888C127.225 195.746 123.867 192.388 119.725 192.388H111.709C107.567 192.388 104.209 195.746 104.209 199.888C104.209 204.03 107.567 207.388 111.709 207.388H119.725C123.867 207.388 127.225 204.03 127.225 199.888Z" fill="black"/>
<path d="M87.66 296.595H7.49991C3.35796 296.595 0 299.953 0 304.095C0 308.237 3.35796 311.595 7.49991 311.595H87.66C91.8019 311.595 95.1599 308.237 95.1599 304.095C95.1599 299.953 91.8019 296.595 87.66 296.595Z" fill="black"/>
<path d="M79.6446 328.66H31.5476C27.4056 328.66 24.0476 332.018 24.0476 336.16C24.0476 340.302 27.4056 343.66 31.5476 343.66H79.6446C83.7866 343.66 87.1446 340.302 87.1446 336.16C87.1446 332.018 83.7866 328.66 79.6446 328.66Z" fill="black"/>
<path d="M71.6284 360.724H55.5964C51.4544 360.724 48.0964 364.082 48.0964 368.224C48.0964 372.366 51.4544 375.724 55.5964 375.724H71.6284C75.7704 375.724 79.1284 372.366 79.1284 368.224C79.1284 364.082 75.7704 360.724 71.6284 360.724Z" fill="black"/>
</svg>
