<svg width="512" height="512" viewBox="0 0 512 512" fill="none" xmlns="http://www.w3.org/2000/svg">
<path d="M414.49 69.2289L307.488 45.8149C301.945 44.6019 296.166 46.2949 292.154 50.3069L12.378 330.083C5.87498 336.586 5.87498 347.129 12.378 353.632L142.794 484.048C149.297 490.551 159.84 490.551 166.343 484.048L446.12 204.271C450.132 200.259 451.825 194.48 450.612 188.937L427.198 81.9359C425.807 75.5819 420.844 70.6189 414.49 69.2289Z" fill="#FF6470"/>
<path d="M446.121 204.273L166.342 484.052C159.845 490.549 149.297 490.549 142.79 484.052L139.67 480.932C142.057 480.14 144.305 478.793 146.197 476.901L425.976 197.122C429.987 193.111 431.681 187.327 430.463 181.791L407.049 74.7867C406.366 71.6377 404.801 68.8347 402.632 66.6357L414.487 69.2307C420.845 70.6167 425.807 75.5787 427.194 81.9377L450.607 188.941C451.825 194.477 450.132 200.261 446.121 204.273Z" fill="#FF4555"/>
<path d="M379.075 141.2C391.228 141.2 401.079 131.348 401.079 119.196C401.079 107.043 391.228 97.1919 379.075 97.1919C366.923 97.1919 357.071 107.043 357.071 119.196C357.071 131.348 366.923 141.2 379.075 141.2Z" fill="#FFF6EC"/>
<path d="M196.623 250.224C193.237 248.811 189.376 249.576 186.784 252.172C184.193 254.768 183.436 258.632 184.855 262.015C184.878 262.071 184.903 262.126 184.927 262.182C184.927 262.182 213.491 325.889 213.532 325.98C217.408 334.625 231.235 328.799 227.221 319.843L222.212 308.671L243.163 287.72L254.286 292.748C258.062 294.457 262.504 292.778 264.21 289.003C265.917 285.228 264.24 280.785 260.465 279.079L196.824 250.311C196.757 250.281 196.691 250.252 196.623 250.224ZM228.552 281.115L215.644 294.023L205.105 270.517L228.552 281.115Z" fill="black"/>
<path d="M223.43 216.182C221.904 219.089 222.447 222.65 224.768 224.971C224.768 224.971 271.542 271.745 271.543 271.745C274.419 274.62 279.258 274.636 282.15 271.745C285.079 268.816 285.079 264.067 282.15 261.138L252.39 231.378L306.149 241.218C310.015 241.918 313.613 240.266 315.322 237.004C317.07 233.669 316.319 229.633 313.358 226.671L267.637 181.826C264.679 178.926 259.93 178.972 257.03 181.929C254.129 184.887 254.175 189.636 257.133 192.536L287.793 222.608L231.423 212.291C228.196 211.7 224.955 213.276 223.43 216.182Z" fill="black"/>
<path d="M324.703 218.624C327.596 221.496 332.442 221.475 335.311 218.585C335.699 218.194 344.844 208.978 348.447 205.247C361.655 191.57 359.66 170.062 343.705 154.108C336.105 146.507 327.48 141.824 318.763 140.564C308.845 139.132 299.341 142.389 291.996 149.734C291.996 149.734 279.141 162.589 279.117 162.613C276.278 165.452 276.286 170.399 279.127 173.231C279.127 173.231 296.653 190.69 301.838 195.875C308.157 202.197 324.701 218.622 324.703 218.624ZM302.603 160.341C306.636 156.308 311.353 154.651 316.617 155.41C322.027 156.192 327.879 159.496 333.097 164.714C344.917 176.534 343.904 188.354 337.656 194.825C335.905 196.638 332.721 199.872 329.942 202.684C324.547 197.323 316.444 189.268 312.443 185.268C309.101 181.926 300.639 173.491 295.036 167.907L302.603 160.341Z" fill="black"/>
<path d="M90.5409 348.416C90.5409 348.416 76.9779 361.98 76.9299 362.028C74.0779 364.88 74.0879 369.794 76.9299 372.635C76.9299 372.635 123.72 419.425 123.792 419.497C126.661 422.366 131.563 422.359 134.423 419.474C134.424 419.473 146.883 406.902 150.333 403.452C160.213 393.572 160.213 377.497 150.333 367.617C144.526 361.809 136.578 359.416 129.005 360.436C128.211 356.03 126.115 351.814 122.716 348.415C113.845 339.546 99.4119 339.545 90.5409 348.416ZM117.883 385.446L125.105 378.224C129.136 374.194 135.694 374.193 139.725 378.224C143.756 382.255 143.756 388.813 139.725 392.844C137.767 394.802 132.916 399.689 129.073 403.563L114.433 388.922C115.556 387.79 116.747 386.59 117.883 385.446ZM112.108 369.981C111.11 370.978 109.241 372.858 107.201 374.913L103.812 378.302L92.8409 367.331L101.149 359.023C104.17 356.001 109.088 356.002 112.107 359.023C115.129 362.044 115.129 366.96 112.108 369.981Z" fill="black"/>
<path d="M172.399 301.522C162.76 291.883 146.765 292.191 136.745 302.212L124.292 314.665C124.289 314.668 124.287 314.67 124.284 314.673C124.281 314.676 124.279 314.678 124.276 314.68C121.347 317.609 121.347 322.358 124.276 325.287L171.138 372.149C172.602 373.613 174.522 374.346 176.442 374.346C178.362 374.346 180.281 373.614 181.746 372.149C184.675 369.22 184.675 364.471 181.746 361.542L167.013 346.809L201.302 348.995C201.464 349.005 201.626 349.011 201.786 349.011C205.711 349.011 209.011 345.959 209.264 341.987C209.528 337.853 206.39 334.288 202.256 334.024L175.554 332.321C181.6 322.514 180.598 309.721 172.399 301.522ZM161.103 326.569C159.457 328.215 156.591 331.105 154.035 333.686C151.508 331.185 142.858 322.575 140.22 319.951L147.352 312.818C151.452 308.718 158.065 308.402 161.792 312.128C165.519 315.857 165.203 322.469 161.103 326.569Z" fill="black"/>
<path d="M385.064 254.723L161.039 478.744C157.47 482.313 151.665 482.312 148.098 478.744L54.6851 385.331C51.7561 382.402 47.0071 382.402 44.0781 385.331C41.1491 388.26 41.1491 393.009 44.0781 395.938L137.491 489.351C142.2 494.06 148.383 496.414 154.569 496.414C160.753 496.414 166.939 494.059 171.647 489.351L395.671 265.33C398.6 262.401 398.6 257.652 395.671 254.723C392.742 251.793 387.992 251.794 385.064 254.723Z" fill="black"/>
<path d="M490.217 37.368C461.173 8.32396 413.913 8.32396 384.869 37.368C380.314 41.923 376.393 47.003 373.178 52.51L309.092 38.487C301.011 36.719 292.699 39.156 286.851 45.003L7.074 324.78C2.512 329.342 0 335.407 0 341.858C0 348.309 2.512 354.374 7.074 358.936L19.688 371.55C21.152 373.015 23.072 373.747 24.992 373.747C26.911 373.747 28.831 373.015 30.296 371.55C33.225 368.621 33.225 363.872 30.296 360.943L17.682 348.329C14.114 344.761 14.114 338.956 17.682 335.388L297.458 55.611C299.674 53.395 302.823 52.471 305.885 53.142L412.886 76.556C416.367 77.318 419.108 80.059 419.869 83.539L434.285 149.418C422.868 148.797 411.597 144.912 402.008 137.762C411.362 126.252 410.442 108.839 399.936 98.333C381.872 80.268 349.569 93.492 349.57 119.196C349.57 127.077 352.639 134.486 358.212 140.058C363.785 145.631 371.194 148.7 379.075 148.7C382.645 148.7 386.118 148.07 389.367 146.863C403.214 158.621 420.378 164.5 437.543 164.5H437.586L443.284 190.541C443.954 193.602 443.031 196.752 440.816 198.967L409.789 229.994C406.86 232.923 406.86 237.672 409.789 240.601C412.718 243.53 417.467 243.53 420.396 240.601L451.423 209.574C457.271 203.726 459.706 195.412 457.939 187.333L452.608 162.972C466.399 160.145 479.539 153.393 490.217 142.715C519.261 113.672 519.261 66.413 490.217 37.368ZM391.129 127.267C388.922 124.522 386.966 121.595 385.286 118.515C383.302 114.878 378.747 113.539 375.11 115.522C371.473 117.506 370.133 122.062 372.117 125.698C373.602 128.42 375.257 131.046 377.072 133.562C373.957 133.134 371.081 131.712 368.819 129.45C366.08 126.711 364.571 123.069 364.571 119.195C364.571 111.311 371.211 104.692 379.074 104.692C386.929 104.692 393.578 111.39 393.578 119.195C393.578 122.113 392.722 124.899 391.129 127.267ZM449.402 148.322L434.525 80.332C432.515 71.146 425.281 63.912 416.094 61.901L388.793 55.927C390.776 53.102 393.009 50.443 395.477 47.975C418.672 24.78 456.414 24.779 479.61 47.975C502.805 71.171 502.805 108.913 479.61 132.109C471.037 140.682 460.479 146.086 449.402 148.322Z" fill="black"/>
</svg>
