<svg width="20" height="21" viewBox="0 0 20 21" fill="none" xmlns="http://www.w3.org/2000/svg">
<path d="M15.8063 13.0144C15.3968 12.5881 14.903 12.3602 14.3795 12.3602C13.8603 12.3602 13.3622 12.5839 12.9359 13.0102L11.602 14.3399C11.4923 14.2808 11.3825 14.2259 11.277 14.171C11.125 14.095 10.9815 14.0233 10.8591 13.9473C9.60966 13.1537 8.47417 12.1195 7.38512 10.7814C6.85747 10.1145 6.5029 9.55309 6.24541 8.98324C6.59154 8.66666 6.91235 8.33741 7.22471 8.02082C7.34291 7.90263 7.4611 7.78022 7.57929 7.66203C8.46573 6.77559 8.46573 5.62744 7.57929 4.741L6.42692 3.58863C6.29606 3.45777 6.16099 3.3227 6.03435 3.18762C5.78108 2.92591 5.51515 2.65576 5.24078 2.40249C4.83133 1.99726 4.34168 1.78198 3.8267 1.78198C3.31172 1.78198 2.81362 1.99726 2.39151 2.40249C2.38729 2.40671 2.38729 2.40671 2.38307 2.41093L0.947882 3.85878C0.407577 4.39909 0.0994339 5.05758 0.0318957 5.82161C-0.0694116 7.05418 0.293606 8.20233 0.572201 8.95369C1.25603 10.7983 2.27754 12.5079 3.80137 14.3399C5.65023 16.5475 7.87477 18.2908 10.4159 19.5192C11.3868 19.9793 12.6826 20.5238 14.1305 20.6167C14.2191 20.6209 14.312 20.6251 14.3964 20.6251C15.3715 20.6251 16.1904 20.2748 16.832 19.5783C16.8362 19.5699 16.8447 19.5656 16.8489 19.5572C17.0684 19.2913 17.3217 19.0507 17.5876 18.7932C17.7691 18.6201 17.9548 18.4386 18.1364 18.2486C18.5542 17.8139 18.7737 17.3073 18.7737 16.7881C18.7737 16.2647 18.55 15.7624 18.1237 15.3403L15.8063 13.0144ZM17.3175 17.4593C17.3132 17.4593 17.3132 17.4635 17.3175 17.4593C17.1528 17.6366 16.984 17.797 16.8025 17.9743C16.5281 18.236 16.2495 18.5103 15.9878 18.8185C15.5615 19.2744 15.0591 19.4897 14.4006 19.4897C14.3373 19.4897 14.2698 19.4897 14.2065 19.4854C12.9528 19.4052 11.7878 18.9156 10.914 18.4977C8.52482 17.3411 6.42692 15.6991 4.68359 13.618C3.24418 11.8832 2.28176 10.2791 1.64437 8.55691C1.2518 7.50584 1.10829 6.68694 1.1716 5.91448C1.21381 5.4206 1.40377 5.01115 1.75412 4.6608L3.19353 3.22139C3.40036 3.02722 3.61986 2.92169 3.83514 2.92169C4.10107 2.92169 4.31635 3.08209 4.45143 3.21717C4.45565 3.22139 4.45987 3.22561 4.46409 3.22983C4.72158 3.47044 4.9664 3.71948 5.22389 3.98542C5.35475 4.12049 5.48983 4.25557 5.6249 4.39487L6.77727 5.54724C7.22471 5.99468 7.22471 6.40835 6.77727 6.85579C6.65486 6.9782 6.53667 7.10061 6.41425 7.21881C6.05968 7.58182 5.72199 7.91952 5.35475 8.24876C5.34631 8.25721 5.33786 8.26143 5.33364 8.26987C4.97063 8.63289 5.03816 8.98746 5.11414 9.22807C5.11837 9.24073 5.12259 9.25339 5.12681 9.26606C5.42651 9.99209 5.84862 10.6759 6.49023 11.4906L6.49446 11.4948C7.65949 12.93 8.88784 14.0486 10.2428 14.9055C10.4159 15.0152 10.5932 15.1039 10.762 15.1883C10.914 15.2643 11.0575 15.3361 11.1799 15.412C11.1968 15.4205 11.2137 15.4331 11.2306 15.4416C11.3741 15.5133 11.5092 15.5471 11.6485 15.5471C11.9988 15.5471 12.2183 15.3276 12.2901 15.2559L13.7337 13.8122C13.8772 13.6687 14.1052 13.4956 14.3711 13.4956C14.6328 13.4956 14.8481 13.6603 14.9789 13.8038C14.9832 13.808 14.9832 13.808 14.9874 13.8122L17.3132 16.1381C17.748 16.5686 17.748 17.0118 17.3175 17.4593Z" fill="white"/>
<path d="M10.8084 5.38265C11.9144 5.56838 12.919 6.0918 13.721 6.89382C14.523 7.69583 15.0422 8.70046 15.2322 9.8064C15.2786 10.085 15.5192 10.2792 15.7936 10.2792C15.8273 10.2792 15.8569 10.2749 15.8907 10.2707C16.203 10.2201 16.4099 9.92459 16.3592 9.61223C16.1313 8.27413 15.4981 7.05422 14.5315 6.08758C13.5648 5.12094 12.3449 4.48777 11.0068 4.25983C10.6944 4.20917 10.4032 4.41601 10.3483 4.72415C10.2934 5.03229 10.4961 5.332 10.8084 5.38265Z" fill="white"/>
<path d="M19.9767 9.44767C19.6011 7.24423 18.5627 5.23919 16.9671 3.6436C15.3715 2.04801 13.3664 1.00961 11.163 0.633932C10.8549 0.579057 10.5636 0.790114 10.5087 1.09826C10.4581 1.41062 10.6649 1.70188 10.9773 1.75675C12.9443 2.09022 14.7383 3.0231 16.165 4.44562C17.5918 5.87236 18.5204 7.66635 18.8539 9.6334C18.9003 9.91199 19.1409 10.1062 19.4153 10.1062C19.4491 10.1062 19.4786 10.1019 19.5124 10.0977C19.8206 10.0513 20.0316 9.75581 19.9767 9.44767Z" fill="white"/>
</svg>
