<svg width="50" height="50" viewBox="0 0 50 50" fill="none" xmlns="http://www.w3.org/2000/svg">
<g clip-path="url(#clip0_3994_18769)">
<path d="M39.5158 30.9732C38.4921 29.9074 37.2575 29.3375 35.9489 29.3375C34.6509 29.3375 33.4057 29.8968 32.3398 30.9627L29.0051 34.2868C28.7308 34.1391 28.4564 34.0019 28.1926 33.8647C27.8127 33.6747 27.4539 33.4953 27.1478 33.3054C24.0242 31.3214 21.1855 28.736 18.4629 25.3907C17.1437 23.7234 16.2573 22.3199 15.6136 20.8952C16.4789 20.1038 17.2809 19.2807 18.0618 18.4892C18.3573 18.1937 18.6528 17.8877 18.9483 17.5922C21.1644 15.3761 21.1644 12.5057 18.9483 10.2896L16.0674 7.40871C15.7402 7.08157 15.4025 6.74388 15.0859 6.40619C14.4528 5.75191 13.7879 5.07653 13.102 4.44336C12.0784 3.43028 10.8543 2.89209 9.56681 2.89209C8.27936 2.89209 7.03412 3.43028 5.97884 4.44336C5.96829 4.45391 5.96829 4.45391 5.95773 4.46446L2.36977 8.08409C1.019 9.43485 0.248646 11.0811 0.0798003 12.9912C-0.173468 16.0726 0.734077 18.943 1.43056 20.8214C3.14012 25.433 5.69391 29.7069 9.50349 34.2868C14.1256 39.8059 19.687 44.1643 26.0398 47.2351C28.4669 48.3854 31.7067 49.7467 35.3263 49.9789C35.5479 49.9894 35.7801 50 35.9911 50C38.4288 50 40.4761 49.1241 42.0801 47.3829C42.0907 47.3618 42.1118 47.3512 42.1223 47.3301C42.6711 46.6653 43.3042 46.0638 43.9691 45.42C44.4228 44.9874 44.8872 44.5336 45.3409 44.0587C46.3857 42.9718 46.9344 41.7054 46.9344 40.4074C46.9344 39.0989 46.3751 37.8431 45.3093 36.7878L39.5158 30.9732ZM43.2937 42.0853C43.2831 42.0853 43.2831 42.0959 43.2937 42.0853C42.8821 42.5286 42.46 42.9296 42.0062 43.3728C41.3203 44.0271 40.6238 44.713 39.9695 45.4834C38.9037 46.6231 37.6479 47.1613 36.0017 47.1613C35.8434 47.1613 35.6745 47.1613 35.5162 47.1507C32.382 46.9502 29.4695 45.7261 27.285 44.6813C21.3121 41.7899 16.0674 37.6848 11.709 32.4823C8.11051 28.145 5.70447 24.135 4.11099 19.8294C3.12957 17.2017 2.77078 15.1545 2.92907 13.2233C3.0346 11.9886 3.50947 10.965 4.38536 10.0891L7.98388 6.49061C8.50097 6.00518 9.04972 5.74136 9.58791 5.74136C10.2527 5.74136 10.7909 6.14237 11.1286 6.48006C11.1392 6.49061 11.1497 6.50116 11.1603 6.51171C11.804 7.11323 12.4161 7.73585 13.0598 8.40067C13.3869 8.73836 13.7246 9.07606 14.0623 9.4243L16.9432 12.3052C18.0618 13.4238 18.0618 14.458 16.9432 15.5766C16.6372 15.8826 16.3417 16.1887 16.0357 16.4841C15.1493 17.3917 14.305 18.2359 13.3869 19.059C13.3658 19.0801 13.3447 19.0907 13.3342 19.1118C12.4266 20.0194 12.5955 20.9058 12.7854 21.5073C12.796 21.539 12.8065 21.5706 12.8171 21.6023C13.5663 23.4174 14.6216 25.1269 16.2256 27.1636L16.2362 27.1742C19.1488 30.7621 22.2197 33.5586 25.6071 35.7009C26.0398 35.9753 26.483 36.1969 26.9051 36.4079C27.285 36.5979 27.6438 36.7773 27.9499 36.9672C27.9921 36.9883 28.0343 37.02 28.0765 37.0411C28.4353 37.2205 28.773 37.3049 29.1212 37.3049C29.9971 37.3049 30.5459 36.7562 30.7253 36.5768L34.3343 32.9677C34.6931 32.6089 35.263 32.1762 35.9278 32.1762C36.5821 32.1762 37.1203 32.5878 37.4474 32.9466C37.458 32.9571 37.458 32.9571 37.4685 32.9677L43.2831 38.7823C44.3701 39.8587 44.3701 40.9667 43.2937 42.0853Z" fill="white"/>
<path d="M27.0213 11.8935C29.7861 12.3578 32.2977 13.6664 34.3027 15.6714C36.3078 17.6765 37.6058 20.188 38.0807 22.9529C38.1967 23.6494 38.7983 24.1348 39.4842 24.1348C39.5686 24.1348 39.6425 24.1243 39.7269 24.1137C40.5078 23.9871 41.0249 23.2484 40.8983 22.4675C40.3284 19.1222 38.7455 16.0724 36.3289 13.6558C33.9123 11.2392 30.8625 9.65631 27.5173 9.08646C26.7364 8.95982 26.0082 9.47691 25.871 10.2473C25.7338 11.0176 26.2404 11.7669 27.0213 11.8935Z" fill="white"/>
<path d="M49.942 22.0561C49.0028 16.5475 46.4068 11.5349 42.4178 7.5459C38.4289 3.55692 33.4163 0.960922 27.9077 0.0217193C27.1373 -0.115468 26.4092 0.412174 26.272 1.18253C26.1454 1.96344 26.6624 2.69159 27.4434 2.82878C32.361 3.66245 36.8459 5.99463 40.4128 9.55094C43.9797 13.1178 46.3013 17.6028 47.135 22.5204C47.251 23.2169 47.8526 23.7023 48.5385 23.7023C48.6229 23.7023 48.6968 23.6917 48.7812 23.6812C49.5516 23.5651 50.0792 22.8264 49.942 22.0561Z" fill="white"/>
</g>
<defs>
<clipPath id="clip0_3994_18769">
<rect width="50" height="50" fill="white"/>
</clipPath>
</defs>
</svg>
