<svg width="20" height="21" viewBox="0 0 20 21" fill="none" xmlns="http://www.w3.org/2000/svg">
<path d="M18.2422 3.59375H1.75781C0.786602 3.59375 0 4.38523 0 5.35156V15.8984C0 16.8705 0.792383 17.6562 1.75781 17.6562H18.2422C19.2053 17.6562 20 16.8738 20 15.8984V5.35156C20 4.38695 19.2165 3.59375 18.2422 3.59375ZM17.996 4.76562C17.6369 5.12285 11.4564 11.2708 11.243 11.4831C10.9109 11.8151 10.4695 11.9979 10 11.9979C9.53047 11.9979 9.08906 11.8151 8.75594 11.482C8.61242 11.3392 2.50012 5.25914 2.00398 4.76562H17.996ZM1.17188 15.6599V5.59082L6.23586 10.6281L1.17188 15.6599ZM2.00473 16.4844L7.06672 11.4546L7.9284 12.3117C8.48176 12.8651 9.21746 13.1698 10 13.1698C10.7825 13.1698 11.5182 12.8651 12.0705 12.3128L12.9333 11.4546L17.9953 16.4844H2.00473ZM18.8281 15.6599L13.7641 10.6281L18.8281 5.59082V15.6599Z" fill="white"/>
</svg>
