<svg width="20" height="20" viewBox="0 0 20 20" fill="none" xmlns="http://www.w3.org/2000/svg">
<g clip-path="url(#clip0_3994_18326)">
<path d="M14.0419 0H5.95811C2.67279 0 0 2.67279 0 5.95811V14.0419C0 17.3272 2.67279 20 5.95811 20H14.0419C17.3272 20 20 17.3272 20 14.0419V5.95811C20 2.67279 17.3272 0 14.0419 0ZM17.988 14.0419C17.988 16.2213 16.2213 17.988 14.0419 17.988H5.95811C3.77875 17.988 2.012 16.2213 2.012 14.0419V5.95811C2.012 3.77871 3.77875 2.012 5.95811 2.012H14.0419C16.2213 2.012 17.988 3.77871 17.988 5.95811V14.0419Z" fill="#FF6700"/>
<path d="M10.0001 4.82739C7.14787 4.82739 4.82739 7.14787 4.82739 10.0001C4.82739 12.8523 7.14787 15.1728 10.0001 15.1728C12.8523 15.1728 15.1728 12.8523 15.1728 10.0001C15.1728 7.14783 12.8523 4.82739 10.0001 4.82739ZM10.0001 13.1608C8.25448 13.1608 6.83939 11.7457 6.83939 10.0001C6.83939 8.25448 8.25451 6.83939 10.0001 6.83939C11.7457 6.83939 13.1608 8.25448 13.1608 10.0001C13.1608 11.7457 11.7457 13.1608 10.0001 13.1608Z" fill="#FF6700"/>
<path d="M15.1828 6.10568C15.8674 6.10568 16.4223 5.55075 16.4223 4.8662C16.4223 4.18165 15.8674 3.62671 15.1828 3.62671C14.4983 3.62671 13.9434 4.18165 13.9434 4.8662C13.9434 5.55075 14.4983 6.10568 15.1828 6.10568Z" fill="#FF6700"/>
</g>
<defs>
<clipPath id="clip0_3994_18326">
<rect width="20" height="20" fill="white"/>
</clipPath>
</defs>
</svg>
