<svg width="22" height="23" viewBox="0 0 22 23" fill="none" xmlns="http://www.w3.org/2000/svg">
<path d="M11.7975 14.3143L9.46913 12.0135L9.49663 11.986C11.0916 10.2077 12.2283 8.1635 12.8975 6.00016H15.5833V4.16683H9.16663V2.3335H7.33329V4.16683H0.916626V5.991H11.1558C10.5416 7.76016 9.56996 9.43766 8.24996 10.9043C7.39746 9.96016 6.69163 8.92433 6.13246 7.8335H4.29913C4.96829 9.32766 5.88496 10.7393 7.03079 12.0135L2.36496 16.6152L3.66663 17.9168L8.24996 13.3335L11.1008 16.1843L11.7975 14.3143ZM16.9583 9.66683H15.125L11 20.6668H12.8333L13.86 17.9168H18.2141L19.25 20.6668H21.0833L16.9583 9.66683ZM14.5566 16.0835L16.0416 12.1143L17.5266 16.0835H14.5566Z" fill="#1976D2"/>
</svg>
