<svg width="20" height="21" viewBox="0 0 20 21" fill="none" xmlns="http://www.w3.org/2000/svg">
<g clip-path="url(#clip0_3994_18346)">
<path d="M13.3389 13.8393C15.4671 10.4997 15.1996 10.9163 15.2609 10.8293C16.0358 9.73637 16.4453 8.45008 16.4453 7.10938C16.4453 3.55391 13.5601 0.625 10 0.625C6.45148 0.625 3.55469 3.54813 3.55469 7.10938C3.55469 8.44922 3.97281 9.76918 4.77305 10.8768L6.66102 13.8393C4.64246 14.1495 1.21094 15.0739 1.21094 17.1094C1.21094 17.8514 1.69523 18.9088 4.00242 19.7328C5.61344 20.3081 7.7434 20.625 10 20.625C14.2197 20.625 18.7891 19.4347 18.7891 17.1094C18.7891 15.0736 15.3616 14.1501 13.3389 13.8393ZM5.75191 10.2322C5.74547 10.2221 5.73875 10.2123 5.73172 10.2026C5.06582 9.28652 4.72656 8.20082 4.72656 7.10938C4.72656 4.17898 7.08617 1.79688 10 1.79688C12.9078 1.79688 15.2734 4.18004 15.2734 7.10938C15.2734 8.20258 14.9406 9.25145 14.3107 10.1434C14.2543 10.2179 14.5487 9.76035 10 16.898L5.75191 10.2322ZM10 19.4531C5.39086 19.4531 2.38281 18.0983 2.38281 17.1094C2.38281 16.4447 3.92844 15.3518 7.35344 14.9257L9.50586 18.3032C9.61344 18.472 9.79977 18.5742 9.99996 18.5742C10.2002 18.5742 10.3865 18.472 10.4941 18.3032L12.6464 14.9257C16.0715 15.3518 17.6172 16.4447 17.6172 17.1094C17.6172 18.0899 14.6362 19.4531 10 19.4531Z" fill="white"/>
<path d="M10 4.17969C8.38457 4.17969 7.07031 5.49395 7.07031 7.10938C7.07031 8.7248 8.38457 10.0391 10 10.0391C11.6154 10.0391 12.9297 8.7248 12.9297 7.10938C12.9297 5.49395 11.6154 4.17969 10 4.17969ZM10 8.86719C9.03074 8.86719 8.24219 8.07863 8.24219 7.10938C8.24219 6.14012 9.03074 5.35156 10 5.35156C10.9693 5.35156 11.7578 6.14012 11.7578 7.10938C11.7578 8.07863 10.9693 8.86719 10 8.86719Z" fill="white"/>
</g>
<defs>
<clipPath id="clip0_3994_18346">
<rect width="20" height="20" fill="white" transform="translate(0 0.625)"/>
</clipPath>
</defs>
</svg>
