<svg width="21" height="21" viewBox="0 0 21 21" fill="none" xmlns="http://www.w3.org/2000/svg">
<path fill-rule="evenodd" clip-rule="evenodd" d="M16.9415 3.97484C15.1874 2.21863 12.8545 1.25103 10.3692 1.25C5.24793 1.25 1.07999 5.41782 1.07793 10.5404C1.07725 12.178 1.50503 13.7765 2.31813 15.1855L1 20L5.92542 18.708C7.28258 19.4483 8.81048 19.8384 10.3654 19.8389H10.3693C15.4899 19.8389 19.6583 15.6707 19.6603 10.5479C19.6613 8.06519 18.6958 5.73093 16.9415 3.97484ZM10.3692 18.2698H10.366C8.98031 18.2692 7.62132 17.8968 6.43549 17.1933L6.15362 17.0259L3.2308 17.7927L4.01094 14.943L3.82726 14.6508C3.05421 13.4212 2.646 12.0001 2.64669 10.541C2.64829 6.28323 6.11265 2.81921 10.3723 2.81921C12.4349 2.8199 14.3739 3.62419 15.8319 5.08389C17.2899 6.54358 18.0923 8.48381 18.0916 10.5473C18.0898 14.8054 14.6257 18.2698 10.3692 18.2698ZM14.6051 12.486C14.373 12.3698 13.2316 11.8083 13.0187 11.7307C12.8061 11.6533 12.6511 11.6147 12.4965 11.847C12.3417 12.0793 11.8968 12.6023 11.7613 12.7571C11.6258 12.9121 11.4906 12.9316 11.2584 12.8153C11.0262 12.6991 10.2782 12.4539 9.39138 11.663C8.7013 11.0474 8.23541 10.2872 8.09991 10.0549C7.96465 9.82231 8.09877 9.70879 8.20177 9.58107C8.45308 9.26899 8.70473 8.9418 8.7821 8.78696C8.85957 8.63201 8.82078 8.4964 8.76264 8.38024C8.70473 8.26408 8.24045 7.12139 8.04704 6.65642C7.85844 6.20392 7.66721 6.26503 7.52462 6.25793C7.38935 6.25118 7.23451 6.24981 7.07967 6.24981C6.92495 6.24981 6.67341 6.30783 6.46055 6.54037C6.2478 6.7728 5.64813 7.33437 5.64813 8.47706C5.64813 9.61975 6.48 10.7236 6.59605 10.8786C6.71209 11.0336 8.23312 13.3784 10.5619 14.3839C11.1158 14.6233 11.5481 14.766 11.8854 14.873C12.4416 15.0497 12.9475 15.0248 13.3476 14.9651C13.7937 14.8983 14.721 14.4034 14.9146 13.8612C15.108 13.3188 15.108 12.8541 15.0499 12.7571C14.992 12.6603 14.8372 12.6023 14.6051 12.486Z" fill="#FF6700"/>
</svg>
